<?xml version="1.0" encoding="UTF-8"?>
<svg xmlns="http://www.w3.org/2000/svg" xmlns:xlink="http://www.w3.org/1999/xlink" viewBox="0 0 266 348.33">
    <g id="b">
        <g id="c">
            <rect fill="#fff" y="21" width="266" height="312" />
            <rect fill="#fc0" x="17" y="35" width="233" height="281" />
            <polygon fill="#fff" points="106 122 28 79 28 114 106 157 106 122" />
            <polygon fill="#fff" points="106 171 28 128 28 163 106 206 106 171" />
            <polygon fill="#fff" points="106 221 28 178 28 213 106 256 106 221" />
            <polygon fill="#fff" points="161 122 239 79 239 114 161 157 161 122" />
            <polygon fill="#fff" points="161 171 239 128 239 163 161 206 161 171" />
            <polygon fill="#fff" points="161 221 239 178 239 213 161 256 161 221" />
            <path fill="#fff" stroke="#f90" stroke-miterlimit="10" stroke-width="12px"
                d="M176,83h-6c-1.1,0-2,.9-2,2v1h-23.42c-.73-2.59-2.38-4.79-4.58-6.22v-28.78h13c.55,0,1.05-.22,1.41-.59,.37-.36,.59-.86,.59-1.41,0-1.1-.9-2-2-2h-13V26.22c3.01-1.96,5-5.36,5-9.22,0-6.08-4.92-11-11-11s-11,4.92-11,11c0,3.86,1.99,7.26,5,9.22v20.78h-13c-.55,0-1.05,.22-1.41,.59-.37,.36-.59,.86-.59,1.41,0,1.1,.9,2,2,2h13v28.78c-2.2,1.43-3.85,3.63-4.58,6.22h-20.42v-1c0-1.1-.9-2-2-2h-6c-1.1,0-2,.9-2,2v10c0,1.1,.9,2,2,2h6c1.1,0,2-.9,2-2v-1h20v222.33s6,26,11,26,11-26,11-26V94h23v1c0,1.1,.9,2,2,2h6c1.1,0,2-.9,2-2v-10c0-1.1-.9-2-2-2Z" />
            <path fill="#fff"
                d="M176,83h-6c-1.1,0-2,.9-2,2v1h-23.42l-4.58-6.22v-28.78h13c.55,0,1.05-.22,1.41-.59,.37-.36,.59-.86,.59-1.41,0-1.1-.9-2-2-2h-13V26.22c3.01-1.96,5-5.36,5-9.22,0-6.08-4.92-11-11-11s-11,4.92-11,11c0,3.86,1.99,7.26,5,9.22v20.78h-13c-.55,0-1.05,.22-1.41,.59-.37,.36-.59,.86-.59,1.41,0,1.1,.9,2,2,2h13v28.78l-4.58,6.22h-20.42v-1c0-1.1-.9-2-2-2h-6c-1.1,0-2,.9-2,2v10c0,1.1,.9,2,2,2h6c1.1,0,2-.9,2-2v-1h20v222.33s6,26,11,26,11-26,11-26V94h23v1c0,1.1,.9,2,2,2h6c1.1,0,2-.9,2-2v-10c0-1.1-.9-2-2-2Z" />
        </g>
    </g>
</svg>
