<?xml version="1.0" encoding="utf-8"?>
<svg version="1.1" id="Layer_1" xmlns="http://www.w3.org/2000/svg" xmlns:xlink="http://www.w3.org/1999/xlink" x="0px" y="0px"
     viewBox="0 0 415.4 493.7" style="enable-background:new 0 0 415.4 493.7;" xml:space="preserve">
<g id="Layer_2_00000052080276213391179310000017995358551165223597_">
    <g id="Layer_1-2">
        <path fill="#2355BD" d="M410.4,0c2.8,0,5,2.2,5,5v370.6c-0.2,3-1.8,5.8-4.4,7.4L212.1,492.7c-2.8,1.3-6,1.3-8.8,0L4.4,383
            c-2.6-1.6-4.2-4.4-4.4-7.4V5c0-2.8,2.2-5,5-5H410.4z"/>
        <path fill="#4671D2" d="M399.8,12.6c2.8,0,5,2.2,5,5v351.2c-0.2,3-1.8,5.8-4.4,7.4L212.1,480.1c-2.8,1.3-6,1.3-8.8,0L15,376.2
            c-2.6-1.6-4.2-4.4-4.4-7.4V17.6c0-2.8,2.2-5,5-5H399.8z"/>
        <polygon fill="#FFFFFF" points="208.8,344.4 382.5,248.7 382.5,170.7 208.8,266.5 35.2,170.7 35.2,248.7"/>
    </g>
</g>
<polygon fill="#FFFFFF" points="208.8,234.4 382.5,138.7 382.5,60.7 208.8,156.5 35.2,60.7 35.2,138.7"/>
<polygon fill="#FFFFFF" points="208.8,454.4 382.5,358.7 382.5,280.7 208.8,376.5 35.2,280.7 35.2,358.7"/>
</svg>
