<svg xmlns="http://www.w3.org/2000/svg" xmlns:xlink="http://www.w3.org/1999/xlink" viewBox="0 0 443.06 443.06">
    <g id="Layer_2" data-name="Layer 2">
        <g id="Layer_1-2" data-name="Layer 1">
            <rect fill="#fff" x="59.01" y="59.01" width="325.04" height="325.04" rx="20"
                transform="translate(-91.76 221.53) rotate(-45)" />
            <rect fill="#9e0e12" x="67.53" y="67.53" width="308" height="308" rx="20"
                transform="translate(-91.76 221.53) rotate(-45)" />
            <path fill="#fff" stroke="#cc4448" stroke-miterlimit="10" stroke-width="12px"
                d="M168.21,80.76l-6.51,6.51a3.07,3.07,0,0,0,0,4.34l1.08,1.08-25.4,25.4a16.84,16.84,0,0,0-11.71-1.77L94.45,85.1,108.55,71a3.09,3.09,0,0,0,0-4.34,3.08,3.08,0,0,0-4.34,0l-14.1,14.1L67.57,58.22a16.86,16.86,0,1,0-13,13L77.1,93.78,63,107.88a3.09,3.09,0,0,0,0,4.34,3.08,3.08,0,0,0,4.34,0l14.1-14.1,31.21,31.21a16.87,16.87,0,0,0,1.78,11.72L92.28,163.19l-1.08-1.08a3.08,3.08,0,0,0-4.34,0l-6.51,6.51a3.07,3.07,0,0,0,0,4.33L91.2,183.8a3.08,3.08,0,0,0,4.34,0l6.5-6.51a3.07,3.07,0,0,0,0-4.34L101,171.87l21.69-21.69L363.8,391.32s34.7,21.69,40.13,16.27-16.27-40.13-16.27-40.13L146.51,126.32l25-24.95,1.08,1.08a3.07,3.07,0,0,0,4.34,0l6.51-6.5a3.08,3.08,0,0,0,0-4.34L172.54,80.76A3.07,3.07,0,0,0,168.21,80.76Z" />
            <path fill="#fff" stroke="#cc4448" stroke-miterlimit="10" stroke-width="12px"
                d="M366,168.62l-6.5-6.51a3.08,3.08,0,0,0-4.34,0L354,163.19l-25.4-25.4a16.79,16.79,0,0,0,1.78-11.71l31.22-31.22,14.1,14.1a3.08,3.08,0,0,0,4.33,0,3.07,3.07,0,0,0,0-4.34L366,90.52,388.5,68a16.88,16.88,0,1,0-13-13L353,77.51l-14.1-14.1a3.09,3.09,0,0,0-4.34,0,3.08,3.08,0,0,0,0,4.34l14.1,14.1L317.4,113.06a16.87,16.87,0,0,0-11.72,1.78L283.53,92.69l1.09-1.08a3.08,3.08,0,0,0,0-4.34l-6.51-6.51a3.08,3.08,0,0,0-4.34,0L262.93,91.61a3.07,3.07,0,0,0,0,4.34l6.5,6.5a3.07,3.07,0,0,0,4.34,0l1.09-1.08,21.69,21.69L55.41,364.21s-21.7,34.7-16.27,40.13,40.13-16.27,40.13-16.27L320.41,146.92l24.95,25L344.27,173a3.08,3.08,0,0,0,0,4.34l6.51,6.51a3.08,3.08,0,0,0,4.34,0L366,173A3.05,3.05,0,0,0,366,168.62Z" />
            <path fill="#fff"
                d="M366,168.62l-6.5-6.51a3.08,3.08,0,0,0-4.34,0L354,163.19l-25.4-25.4,1.78-11.71,31.22-31.22,14.1,14.1a3.08,3.08,0,0,0,4.33,0,3.07,3.07,0,0,0,0-4.34L366,90.52,388.5,68a16.88,16.88,0,1,0-13-13L353,77.51l-14.1-14.1a3.09,3.09,0,0,0-4.34,0,3.08,3.08,0,0,0,0,4.34l14.1,14.1L317.4,113.06l-11.72,1.78L283.53,92.69l1.09-1.08a3.08,3.08,0,0,0,0-4.34l-6.51-6.51a3.08,3.08,0,0,0-4.34,0L262.93,91.61a3.07,3.07,0,0,0,0,4.34l6.5,6.5a3.07,3.07,0,0,0,4.34,0l1.09-1.08,21.69,21.69L55.41,364.21s-21.7,34.7-16.27,40.13,40.13-16.27,40.13-16.27L320.41,146.92l24.95,25L344.27,173a3.08,3.08,0,0,0,0,4.34l6.51,6.51a3.08,3.08,0,0,0,4.34,0L366,173A3.05,3.05,0,0,0,366,168.62Z" />
            <path fill="#fff"
                d="M168.21,80.76l-6.51,6.51a3.07,3.07,0,0,0,0,4.34l1.08,1.08-25.4,25.4-11.71-1.77L94.45,85.1,108.55,71a3.09,3.09,0,0,0,0-4.34,3.08,3.08,0,0,0-4.34,0l-14.1,14.1L67.57,58.22a16.86,16.86,0,1,0-13,13L77.1,93.78,63,107.88a3.09,3.09,0,0,0,0,4.34,3.08,3.08,0,0,0,4.34,0l14.1-14.1,31.21,31.21,1.78,11.72L92.28,163.19l-1.08-1.08a3.08,3.08,0,0,0-4.34,0l-6.51,6.51a3.07,3.07,0,0,0,0,4.33L91.2,183.8a3.08,3.08,0,0,0,4.34,0l6.5-6.51a3.07,3.07,0,0,0,0-4.34L101,171.87l21.69-21.69L363.8,391.32s34.7,21.69,40.13,16.27-16.27-40.13-16.27-40.13L146.51,126.32l25-24.95,1.08,1.08a3.07,3.07,0,0,0,4.34,0l6.51-6.5a3.08,3.08,0,0,0,0-4.34L172.54,80.76A3.07,3.07,0,0,0,168.21,80.76Z" />
        </g>
    </g>
</svg>
